
    <svg width="200" height="113" viewBox="0 0 200 113" xmlns="http://www.w3.org/2000/svg">
      <defs>
        <linearGradient id="grad-placeholder-drama003-thumbnail" x1="0%" y1="0%" x2="100%" y2="100%">
          <stop offset="0%" stop-color="#3b82f6" />
          <stop offset="100%" stop-color="#d946ef" />
        </linearGradient>
        <linearGradient id="overlay-placeholder-drama003-thumbnail" x1="0%" y1="0%" x2="0%" y2="100%">
          <stop offset="0%" stop-color="rgba(0,0,0,0)" />
          <stop offset="85%" stop-color="rgba(0,0,0,0.5)" />
          <stop offset="100%" stop-color="rgba(0,0,0,0.8)" />
        </linearGradient>
        <filter id="shadow-placeholder-drama003-thumbnail">
          <feDropShadow dx="0" dy="2" stdDeviation="3" flood-opacity="0.3" />
        </filter>
      </defs>
      
      <!-- Fond avec dégradé -->
      <rect width="200" height="113" rx="8" fill="url(#grad-placeholder-drama003-thumbnail)" />
      
      <!-- Motif décoratif basé sur l'ID du contenu -->
      <circle cx="6" cy="21" r="9" fill="rgba(255,255,255,0.1)" /><circle cx="84" cy="3" r="2" fill="rgba(255,255,255,0.1)" /><circle cx="1" cy="29" r="7" fill="rgba(255,255,255,0.1)" /><circle cx="155" cy="73" r="3" fill="rgba(255,255,255,0.1)" /><circle cx="28" cy="43" r="3" fill="rgba(255,255,255,0.1)" /><circle cx="191" cy="65" r="8" fill="rgba(255,255,255,0.1)" /><circle cx="192" cy="81" r="6" fill="rgba(255,255,255,0.1)" /><circle cx="32" cy="25" r="4" fill="rgba(255,255,255,0.1)" /><circle cx="34" cy="103" r="3" fill="rgba(255,255,255,0.1)" /><circle cx="173" cy="52" r="6" fill="rgba(255,255,255,0.1)" /><circle cx="2" cy="15" r="7" fill="rgba(255,255,255,0.1)" /><circle cx="1" cy="87" r="10" fill="rgba(255,255,255,0.1)" /><circle cx="11" cy="62" r="6" fill="rgba(255,255,255,0.1)" /><circle cx="163" cy="35" r="8" fill="rgba(255,255,255,0.1)" /><circle cx="192" cy="83" r="8" fill="rgba(255,255,255,0.1)" /><circle cx="75" cy="17" r="11" fill="rgba(255,255,255,0.1)" /><circle cx="89" cy="12" r="4" fill="rgba(255,255,255,0.1)" /><circle cx="115" cy="25" r="4" fill="rgba(255,255,255,0.1)" /><circle cx="164" cy="45" r="8" fill="rgba(255,255,255,0.1)" /><circle cx="34" cy="7" r="11" fill="rgba(255,255,255,0.1)" />
      
      <!-- Overlay pour le texte -->
      <rect width="200" height="113" rx="8" fill="url(#overlay-placeholder-drama003-thumbnail)" />
      
      
    <g transform="translate(88.7, 45.2) scale(0.226)">
      <defs>
        <linearGradient id="logoGradient-placeholder-drama003-thumbnail" x1="0%" y1="0%" x2="100%" y2="0%">
          <stop offset="0%" stop-color="#3b82f6" />
          <stop offset="100%" stop-color="#d946ef" />
        </linearGradient>
      </defs>
      <circle cx="50" cy="50" r="45" fill="none" stroke="url(#logoGradient-placeholder-drama003-thumbnail)" stroke-width="5" />
      <path d="M30,35 L30,65 M45,35 L45,65 M30,35 Q37.5,25 45,35 M30,65 Q37.5,75 45,65" 
            stroke="url(#logoGradient-placeholder-drama003-thumbnail)" stroke-width="5" fill="none" stroke-linecap="round" />
      <path d="M55,35 L70,35 Q80,35 80,45 Q80,55 70,55 L55,55 L55,65" 
            stroke="url(#logoGradient-placeholder-drama003-thumbnail)" stroke-width="5" fill="none" stroke-linecap="round" />
    </g>
  
      
      <!-- Titre du contenu -->
      <text x="100" y="73" 
            font-family="SF Pro Display, Arial, sans-serif" 
            font-size="18" 
            font-weight="bold"
            text-anchor="middle" 
            fill="#ffffff"
            filter="url(#shadow-placeholder-drama003-thumbnail)">
        Itaewon Class
      </text>
      
      <!-- Catégorie -->
      <text x="100" y="93" 
            font-family="SF Pro Display, Arial, sans-serif" 
            font-size="14" 
            text-anchor="middle" 
            fill="rgba(255, 255, 255, 0.7)">
        Drama
      </text>
    </svg>
  