
    <svg width="300" height="450" viewBox="0 0 300 450" xmlns="http://www.w3.org/2000/svg">
      <defs>
        <linearGradient id="grad-placeholder-drama003-poster" x1="0%" y1="0%" x2="100%" y2="100%">
          <stop offset="0%" stop-color="#3b82f6" />
          <stop offset="100%" stop-color="#d946ef" />
        </linearGradient>
        <linearGradient id="overlay-placeholder-drama003-poster" x1="0%" y1="0%" x2="0%" y2="100%">
          <stop offset="0%" stop-color="rgba(0,0,0,0)" />
          <stop offset="85%" stop-color="rgba(0,0,0,0.5)" />
          <stop offset="100%" stop-color="rgba(0,0,0,0.8)" />
        </linearGradient>
        <filter id="shadow-placeholder-drama003-poster">
          <feDropShadow dx="0" dy="2" stdDeviation="3" flood-opacity="0.3" />
        </filter>
      </defs>
      
      <!-- Fond avec dégradé -->
      <rect width="300" height="450" rx="8" fill="url(#grad-placeholder-drama003-poster)" />
      
      <!-- Motif décoratif basé sur l'ID du contenu -->
      <circle cx="2" cy="409" r="6" fill="rgba(255,255,255,0.1)" /><circle cx="173" cy="160" r="9" fill="rgba(255,255,255,0.1)" /><circle cx="199" cy="214" r="9" fill="rgba(255,255,255,0.1)" /><circle cx="33" cy="439" r="9" fill="rgba(255,255,255,0.1)" /><circle cx="156" cy="424" r="8" fill="rgba(255,255,255,0.1)" /><circle cx="12" cy="130" r="7" fill="rgba(255,255,255,0.1)" /><circle cx="12" cy="257" r="4" fill="rgba(255,255,255,0.1)" /><circle cx="131" cy="372" r="8" fill="rgba(255,255,255,0.1)" /><circle cx="195" cy="437" r="2" fill="rgba(255,255,255,0.1)" /><circle cx="269" cy="247" r="9" fill="rgba(255,255,255,0.1)" /><circle cx="207" cy="159" r="10" fill="rgba(255,255,255,0.1)" /><circle cx="195" cy="5" r="8" fill="rgba(255,255,255,0.1)" /><circle cx="116" cy="180" r="7" fill="rgba(255,255,255,0.1)" /><circle cx="15" cy="162" r="8" fill="rgba(255,255,255,0.1)" /><circle cx="32" cy="93" r="11" fill="rgba(255,255,255,0.1)" /><circle cx="196" cy="58" r="4" fill="rgba(255,255,255,0.1)" /><circle cx="204" cy="295" r="8" fill="rgba(255,255,255,0.1)" /><circle cx="183" cy="438" r="8" fill="rgba(255,255,255,0.1)" /><circle cx="103" cy="66" r="9" fill="rgba(255,255,255,0.1)" /><circle cx="279" cy="92" r="7" fill="rgba(255,255,255,0.1)" />
      
      <!-- Overlay pour le texte -->
      <rect width="300" height="450" rx="8" fill="url(#overlay-placeholder-drama003-poster)" />
      
      
    <g transform="translate(120, 195) scale(0.6)">
      <defs>
        <linearGradient id="logoGradient-placeholder-drama003-poster" x1="0%" y1="0%" x2="100%" y2="0%">
          <stop offset="0%" stop-color="#3b82f6" />
          <stop offset="100%" stop-color="#d946ef" />
        </linearGradient>
      </defs>
      <circle cx="50" cy="50" r="45" fill="none" stroke="url(#logoGradient-placeholder-drama003-poster)" stroke-width="5" />
      <path d="M30,35 L30,65 M45,35 L45,65 M30,35 Q37.5,25 45,35 M30,65 Q37.5,75 45,65" 
            stroke="url(#logoGradient-placeholder-drama003-poster)" stroke-width="5" fill="none" stroke-linecap="round" />
      <path d="M55,35 L70,35 Q80,35 80,45 Q80,55 70,55 L55,55 L55,65" 
            stroke="url(#logoGradient-placeholder-drama003-poster)" stroke-width="5" fill="none" stroke-linecap="round" />
    </g>
  
      
      <!-- Titre du contenu -->
      <text x="150" y="410" 
            font-family="SF Pro Display, Arial, sans-serif" 
            font-size="18" 
            font-weight="bold"
            text-anchor="middle" 
            fill="#ffffff"
            filter="url(#shadow-placeholder-drama003-poster)">
        Itaewon Class
      </text>
      
      <!-- Catégorie -->
      <text x="150" y="430" 
            font-family="SF Pro Display, Arial, sans-serif" 
            font-size="14" 
            text-anchor="middle" 
            fill="rgba(255, 255, 255, 0.7)">
        Drama
      </text>
    </svg>
  