
    <svg width="1280" height="720" viewBox="0 0 1280 720" xmlns="http://www.w3.org/2000/svg">
      <defs>
        <linearGradient id="grad-placeholder-drama003-backdrop" x1="0%" y1="0%" x2="100%" y2="100%">
          <stop offset="0%" stop-color="#3b82f6" />
          <stop offset="100%" stop-color="#d946ef" />
        </linearGradient>
        <linearGradient id="overlay-placeholder-drama003-backdrop" x1="0%" y1="0%" x2="0%" y2="100%">
          <stop offset="0%" stop-color="rgba(0,0,0,0)" />
          <stop offset="85%" stop-color="rgba(0,0,0,0.5)" />
          <stop offset="100%" stop-color="rgba(0,0,0,0.8)" />
        </linearGradient>
        <filter id="shadow-placeholder-drama003-backdrop">
          <feDropShadow dx="0" dy="2" stdDeviation="3" flood-opacity="0.3" />
        </filter>
      </defs>
      
      <!-- Fond avec dégradé -->
      <rect width="1280" height="720" rx="8" fill="url(#grad-placeholder-drama003-backdrop)" />
      
      <!-- Motif décoratif basé sur l'ID du contenu -->
      <circle cx="728" cy="503" r="7" fill="rgba(255,255,255,0.1)" /><circle cx="806" cy="393" r="3" fill="rgba(255,255,255,0.1)" /><circle cx="659" cy="285" r="6" fill="rgba(255,255,255,0.1)" /><circle cx="1107" cy="548" r="7" fill="rgba(255,255,255,0.1)" /><circle cx="856" cy="668" r="2" fill="rgba(255,255,255,0.1)" /><circle cx="1166" cy="473" r="4" fill="rgba(255,255,255,0.1)" /><circle cx="248" cy="299" r="6" fill="rgba(255,255,255,0.1)" /><circle cx="155" cy="70" r="4" fill="rgba(255,255,255,0.1)" /><circle cx="1182" cy="610" r="9" fill="rgba(255,255,255,0.1)" /><circle cx="78" cy="329" r="5" fill="rgba(255,255,255,0.1)" /><circle cx="768" cy="364" r="11" fill="rgba(255,255,255,0.1)" /><circle cx="643" cy="691" r="5" fill="rgba(255,255,255,0.1)" /><circle cx="644" cy="558" r="9" fill="rgba(255,255,255,0.1)" /><circle cx="912" cy="69" r="2" fill="rgba(255,255,255,0.1)" /><circle cx="755" cy="110" r="7" fill="rgba(255,255,255,0.1)" /><circle cx="423" cy="417" r="11" fill="rgba(255,255,255,0.1)" /><circle cx="659" cy="596" r="3" fill="rgba(255,255,255,0.1)" /><circle cx="331" cy="428" r="11" fill="rgba(255,255,255,0.1)" /><circle cx="95" cy="697" r="4" fill="rgba(255,255,255,0.1)" /><circle cx="554" cy="134" r="3" fill="rgba(255,255,255,0.1)" />
      
      <!-- Overlay pour le texte -->
      <rect width="1280" height="720" rx="8" fill="url(#overlay-placeholder-drama003-backdrop)" />
      
      
    <g transform="translate(568, 288) scale(1.44)">
      <defs>
        <linearGradient id="logoGradient-placeholder-drama003-backdrop" x1="0%" y1="0%" x2="100%" y2="0%">
          <stop offset="0%" stop-color="#3b82f6" />
          <stop offset="100%" stop-color="#d946ef" />
        </linearGradient>
      </defs>
      <circle cx="50" cy="50" r="45" fill="none" stroke="url(#logoGradient-placeholder-drama003-backdrop)" stroke-width="5" />
      <path d="M30,35 L30,65 M45,35 L45,65 M30,35 Q37.5,25 45,35 M30,65 Q37.5,75 45,65" 
            stroke="url(#logoGradient-placeholder-drama003-backdrop)" stroke-width="5" fill="none" stroke-linecap="round" />
      <path d="M55,35 L70,35 Q80,35 80,45 Q80,55 70,55 L55,55 L55,65" 
            stroke="url(#logoGradient-placeholder-drama003-backdrop)" stroke-width="5" fill="none" stroke-linecap="round" />
    </g>
  
      
      <!-- Titre du contenu -->
      <text x="640" y="680" 
            font-family="SF Pro Display, Arial, sans-serif" 
            font-size="24" 
            font-weight="bold"
            text-anchor="middle" 
            fill="#ffffff"
            filter="url(#shadow-placeholder-drama003-backdrop)">
        Itaewon Class
      </text>
      
      <!-- Catégorie -->
      <text x="640" y="700" 
            font-family="SF Pro Display, Arial, sans-serif" 
            font-size="18" 
            text-anchor="middle" 
            fill="rgba(255, 255, 255, 0.7)">
        Drama
      </text>
    </svg>
  