
    <svg width="200" height="113" viewBox="0 0 200 113" xmlns="http://www.w3.org/2000/svg">
      <defs>
        <linearGradient id="grad-placeholder-movie003-thumbnail" x1="0%" y1="0%" x2="100%" y2="100%">
          <stop offset="0%" stop-color="#06B6D4" />
          <stop offset="100%" stop-color="#8B5CF6" />
        </linearGradient>
        <linearGradient id="overlay-placeholder-movie003-thumbnail" x1="0%" y1="0%" x2="0%" y2="100%">
          <stop offset="0%" stop-color="rgba(0,0,0,0)" />
          <stop offset="85%" stop-color="rgba(0,0,0,0.5)" />
          <stop offset="100%" stop-color="rgba(0,0,0,0.8)" />
        </linearGradient>
        <filter id="shadow-placeholder-movie003-thumbnail">
          <feDropShadow dx="0" dy="2" stdDeviation="3" flood-opacity="0.3" />
        </filter>
      </defs>
      
      <!-- Fond avec dégradé -->
      <rect width="200" height="113" rx="8" fill="url(#grad-placeholder-movie003-thumbnail)" />
      
      <!-- Motif décoratif basé sur l'ID du contenu -->
      <circle cx="69" cy="42" r="9" fill="rgba(255,255,255,0.1)" /><circle cx="42" cy="22" r="8" fill="rgba(255,255,255,0.1)" /><circle cx="37" cy="98" r="7" fill="rgba(255,255,255,0.1)" /><circle cx="6" cy="8" r="6" fill="rgba(255,255,255,0.1)" /><circle cx="133" cy="35" r="2" fill="rgba(255,255,255,0.1)" /><circle cx="180" cy="52" r="2" fill="rgba(255,255,255,0.1)" /><circle cx="190" cy="66" r="8" fill="rgba(255,255,255,0.1)" /><circle cx="88" cy="85" r="3" fill="rgba(255,255,255,0.1)" /><circle cx="10" cy="77" r="5" fill="rgba(255,255,255,0.1)" /><circle cx="65" cy="78" r="11" fill="rgba(255,255,255,0.1)" /><circle cx="86" cy="90" r="8" fill="rgba(255,255,255,0.1)" /><circle cx="12" cy="35" r="11" fill="rgba(255,255,255,0.1)" /><circle cx="136" cy="13" r="4" fill="rgba(255,255,255,0.1)" /><circle cx="83" cy="82" r="7" fill="rgba(255,255,255,0.1)" /><circle cx="182" cy="28" r="7" fill="rgba(255,255,255,0.1)" /><circle cx="110" cy="58" r="10" fill="rgba(255,255,255,0.1)" /><circle cx="142" cy="3" r="8" fill="rgba(255,255,255,0.1)" /><circle cx="159" cy="38" r="10" fill="rgba(255,255,255,0.1)" /><circle cx="196" cy="7" r="6" fill="rgba(255,255,255,0.1)" /><circle cx="20" cy="21" r="11" fill="rgba(255,255,255,0.1)" />
      
      <!-- Overlay pour le texte -->
      <rect width="200" height="113" rx="8" fill="url(#overlay-placeholder-movie003-thumbnail)" />
      
      
    <g transform="translate(88.7, 45.2) scale(0.226)">
      <defs>
        <linearGradient id="logoGradient-placeholder-movie003-thumbnail" x1="0%" y1="0%" x2="100%" y2="0%">
          <stop offset="0%" stop-color="#3b82f6" />
          <stop offset="100%" stop-color="#d946ef" />
        </linearGradient>
      </defs>
      <circle cx="50" cy="50" r="45" fill="none" stroke="url(#logoGradient-placeholder-movie003-thumbnail)" stroke-width="5" />
      <path d="M30,35 L30,65 M45,35 L45,65 M30,35 Q37.5,25 45,35 M30,65 Q37.5,75 45,65" 
            stroke="url(#logoGradient-placeholder-movie003-thumbnail)" stroke-width="5" fill="none" stroke-linecap="round" />
      <path d="M55,35 L70,35 Q80,35 80,45 Q80,55 70,55 L55,55 L55,65" 
            stroke="url(#logoGradient-placeholder-movie003-thumbnail)" stroke-width="5" fill="none" stroke-linecap="round" />
    </g>
  
      
      <!-- Titre du contenu -->
      <text x="100" y="73" 
            font-family="SF Pro Display, Arial, sans-serif" 
            font-size="18" 
            font-weight="bold"
            text-anchor="middle" 
            fill="#ffffff"
            filter="url(#shadow-placeholder-movie003-thumbnail)">
        The Handmaiden
      </text>
      
      <!-- Catégorie -->
      <text x="100" y="93" 
            font-family="SF Pro Display, Arial, sans-serif" 
            font-size="14" 
            text-anchor="middle" 
            fill="rgba(255, 255, 255, 0.7)">
        Movie
      </text>
    </svg>
  