
    <svg width="300" height="450" viewBox="0 0 300 450" xmlns="http://www.w3.org/2000/svg">
      <defs>
        <linearGradient id="grad-placeholder-movie003-poster" x1="0%" y1="0%" x2="100%" y2="100%">
          <stop offset="0%" stop-color="#06B6D4" />
          <stop offset="100%" stop-color="#8B5CF6" />
        </linearGradient>
        <linearGradient id="overlay-placeholder-movie003-poster" x1="0%" y1="0%" x2="0%" y2="100%">
          <stop offset="0%" stop-color="rgba(0,0,0,0)" />
          <stop offset="85%" stop-color="rgba(0,0,0,0.5)" />
          <stop offset="100%" stop-color="rgba(0,0,0,0.8)" />
        </linearGradient>
        <filter id="shadow-placeholder-movie003-poster">
          <feDropShadow dx="0" dy="2" stdDeviation="3" flood-opacity="0.3" />
        </filter>
      </defs>
      
      <!-- Fond avec dégradé -->
      <rect width="300" height="450" rx="8" fill="url(#grad-placeholder-movie003-poster)" />
      
      <!-- Motif décoratif basé sur l'ID du contenu -->
      <circle cx="153" cy="216" r="7" fill="rgba(255,255,255,0.1)" /><circle cx="62" cy="379" r="2" fill="rgba(255,255,255,0.1)" /><circle cx="141" cy="340" r="10" fill="rgba(255,255,255,0.1)" /><circle cx="238" cy="88" r="5" fill="rgba(255,255,255,0.1)" /><circle cx="257" cy="200" r="2" fill="rgba(255,255,255,0.1)" /><circle cx="179" cy="132" r="11" fill="rgba(255,255,255,0.1)" /><circle cx="134" cy="233" r="9" fill="rgba(255,255,255,0.1)" /><circle cx="153" cy="111" r="5" fill="rgba(255,255,255,0.1)" /><circle cx="93" cy="48" r="4" fill="rgba(255,255,255,0.1)" /><circle cx="180" cy="11" r="7" fill="rgba(255,255,255,0.1)" /><circle cx="221" cy="307" r="2" fill="rgba(255,255,255,0.1)" /><circle cx="123" cy="131" r="6" fill="rgba(255,255,255,0.1)" /><circle cx="84" cy="218" r="5" fill="rgba(255,255,255,0.1)" /><circle cx="144" cy="180" r="3" fill="rgba(255,255,255,0.1)" /><circle cx="274" cy="187" r="4" fill="rgba(255,255,255,0.1)" /><circle cx="233" cy="279" r="6" fill="rgba(255,255,255,0.1)" /><circle cx="242" cy="189" r="8" fill="rgba(255,255,255,0.1)" /><circle cx="94" cy="252" r="8" fill="rgba(255,255,255,0.1)" /><circle cx="27" cy="7" r="3" fill="rgba(255,255,255,0.1)" /><circle cx="200" cy="415" r="6" fill="rgba(255,255,255,0.1)" />
      
      <!-- Overlay pour le texte -->
      <rect width="300" height="450" rx="8" fill="url(#overlay-placeholder-movie003-poster)" />
      
      
    <g transform="translate(120, 195) scale(0.6)">
      <defs>
        <linearGradient id="logoGradient-placeholder-movie003-poster" x1="0%" y1="0%" x2="100%" y2="0%">
          <stop offset="0%" stop-color="#3b82f6" />
          <stop offset="100%" stop-color="#d946ef" />
        </linearGradient>
      </defs>
      <circle cx="50" cy="50" r="45" fill="none" stroke="url(#logoGradient-placeholder-movie003-poster)" stroke-width="5" />
      <path d="M30,35 L30,65 M45,35 L45,65 M30,35 Q37.5,25 45,35 M30,65 Q37.5,75 45,65" 
            stroke="url(#logoGradient-placeholder-movie003-poster)" stroke-width="5" fill="none" stroke-linecap="round" />
      <path d="M55,35 L70,35 Q80,35 80,45 Q80,55 70,55 L55,55 L55,65" 
            stroke="url(#logoGradient-placeholder-movie003-poster)" stroke-width="5" fill="none" stroke-linecap="round" />
    </g>
  
      
      <!-- Titre du contenu -->
      <text x="150" y="410" 
            font-family="SF Pro Display, Arial, sans-serif" 
            font-size="18" 
            font-weight="bold"
            text-anchor="middle" 
            fill="#ffffff"
            filter="url(#shadow-placeholder-movie003-poster)">
        The Handmaiden
      </text>
      
      <!-- Catégorie -->
      <text x="150" y="430" 
            font-family="SF Pro Display, Arial, sans-serif" 
            font-size="14" 
            text-anchor="middle" 
            fill="rgba(255, 255, 255, 0.7)">
        Movie
      </text>
    </svg>
  