<svg width="180" height="50" viewBox="0 0 180 50" fill="none" xmlns="http://www.w3.org/2000/svg">
  <path d="M20 10H40V15H25V25H35V30H25V40H20V10Z" fill="#E50914"/>
  <path d="M45 10H65V15H50V22.5H60V27.5H50V35H65V40H45V10Z" fill="#E50914"/>
  <path d="M70 10H90C95 10 100 15 100 20C100 23 98 26 95 27.5C98 29 100 32 100 35C100 40 95 45 90 45H70V10ZM75 15V25H85C87.5 25 90 22.5 90 20C90 17.5 87.5 15 85 15H75ZM75 30V40H85C87.5 40 90 37.5 90 35C90 32.5 87.5 30 85 30H75Z" fill="#E50914"/>
  <path d="M105 10H125C130 10 135 15 135 20C135 25 130 30 125 30H110V40H105V10ZM110 15V25H120C122.5 25 125 22.5 125 20C125 17.5 122.5 15 120 15H110Z" fill="#E50914"/>
  <path d="M140 10H145V35H160V40H140V10Z" fill="#E50914"/>
  <path d="M165 10H170V25L185 10H190V40H185V25L170 40H165V10Z" fill="#E50914"/>
  <path d="M195 10H215C220 10 225 15 225 20C225 25 220 30 215 30H200V40H195V10ZM200 15V25H210C212.5 25 215 22.5 215 20C215 17.5 212.5 15 210 15H200Z" fill="#E50914"/>
</svg>
