<?xml version="1.0" encoding="UTF-8" standalone="no"?>
<svg width="120" height="120" viewBox="0 0 120 120" fill="none" xmlns="http://www.w3.org/2000/svg">
  <rect width="120" height="120" rx="8" fill="url(#paint0_linear)"/>
  <path d="M25 40H35V80H25V40Z" fill="white"/>
  <path d="M40 40H60C65.5228 40 70 44.4772 70 50V50C70 55.5228 65.5228 60 60 60H40V40Z" fill="white"/>
  <path d="M40 60H55C60.5228 60 65 64.4772 65 70V70C65 75.5228 60.5228 80 55 80H40V60Z" fill="white"/>
  <path d="M75 40H85V80H75V40Z" fill="white"/>
  <path d="M90 40H95V80H90V40Z" fill="white"/>
  <defs>
    <linearGradient id="paint0_linear" x1="0" y1="0" x2="120" y2="120" gradientUnits="userSpaceOnUse">
      <stop stop-color="#3b82f6"/>
      <stop offset="1" stop-color="#d946ef"/>
    </linearGradient>
  </defs>
</svg>
