<?xml version="1.0" encoding="UTF-8" standalone="no"?>
<svg width="512" height="512" viewBox="0 0 512 512" fill="none" xmlns="http://www.w3.org/2000/svg">
  <rect width="512" height="512" rx="100" fill="#1A1A1A"/>
  <path d="M256 120C194.8 120 145 169.8 145 231C145 292.2 194.8 342 256 342C317.2 342 367 292.2 367 231C367 169.8 317.2 120 256 120ZM256 312C211.4 312 175 275.6 175 231C175 186.4 211.4 150 256 150C300.6 150 337 186.4 337 231C337 275.6 300.6 312 256 312Z" fill="#FF00FF"/>
  <path d="M286 211L236 181V241L286 211Z" fill="#FF00FF"/>
  <path d="M145 372V402H367V372H145Z" fill="#FF00FF"/>
</svg>
